<svg width="14" height="14" viewBox="0 0 14 14" fill="none" xmlns="http://www.w3.org/2000/svg">
<path d="M5.90764 0.817325C6.27443 0.0740056 7.33437 0.0740049 7.70117 0.817325L8.9833 3.41562C9.12896 3.71079 9.41054 3.91539 9.73628 3.96272L12.6037 4.37934C13.4239 4.49851 13.7514 5.50647 13.1579 6.08502L11.083 8.1076C10.8474 8.33733 10.7398 8.6683 10.7954 8.99267L11.2851 11.8483C11.4251 12.6652 10.5676 13.2881 9.834 12.9023L7.26985 11.5539C6.97847 11.4006 6.63033 11.4006 6.33895 11.5539L3.7748 12.9023C3.04119 13.2881 2.18366 12.6652 2.32374 11.8483L2.81336 8.99267C2.86898 8.6683 2.76144 8.33733 2.52577 8.1076L0.450902 6.08502C-0.1426 5.50647 0.184925 4.49851 1.00514 4.37934L3.87253 3.96272C4.19826 3.91539 4.47985 3.71079 4.6255 3.41562L5.90764 0.817325Z" fill="#FFD949"/>
</svg>
