<svg width="66" height="30" viewBox="0 0 66 30" fill="none" xmlns="http://www.w3.org/2000/svg">
<path d="M50.3596 0L39.1183 0.382831H39.0487L34.9768 0.522042L7.4826 1.46172C3.61949 1.46172 0.452436 4.38515 0.0696056 8.14385C0 8.38747 0 8.66589 0 8.94432V19.6288C0 23.7355 3.34107 27.0766 7.4478 27.0766L50.3596 30C54.4664 30 57.8074 26.6589 57.8074 22.5522V7.4478C57.8422 3.34107 54.5012 0 50.3596 0Z" fill="url(#paint0_linear)"/>
<path d="M5.0464 8.10934L15 8.03973V11.346L11.6241 11.4156L11.5197 20.0119H7.5174L7.76102 11.4852L5.0116 11.5548L5.0464 8.10934Z" fill="white"/>
<path d="M20.3248 20.7766C19.4548 20.6722 18.6543 20.3938 17.9582 20.0109C17.2622 19.6281 16.6705 19.1061 16.2181 18.4796C15.7309 17.8532 15.4176 17.1571 15.2436 16.3915C15.0696 15.591 15.0696 14.7905 15.2088 13.9901C15.3828 13.1548 15.6961 12.3891 16.1833 11.6931C16.6357 10.997 17.2274 10.4054 17.9234 9.91814C19.42 8.90886 21.0209 8.49122 22.7958 8.70004C23.6659 8.80445 24.4664 9.08287 25.1624 9.5005C25.8585 9.88334 26.4501 10.4054 26.9026 11.0318C27.3898 11.6583 27.703 12.3543 27.877 13.12C28.0511 13.9205 28.051 14.7209 27.9118 15.5214C27.7378 16.3567 27.4246 17.1223 26.9374 17.8184C26.4501 18.5144 25.8585 19.0713 25.1624 19.5933C23.7007 20.5678 22.0998 20.9854 20.3248 20.7766Z" fill="white"/>
<path d="M33.4106 21.2994C32.5406 21.195 31.7401 20.9166 31.0441 20.5338C30.348 20.1509 29.7563 19.6289 29.3039 19.0025C28.8167 18.376 28.5035 17.6799 28.3294 16.9143C28.1554 16.1138 28.1554 15.3134 28.2946 14.5129C28.4686 13.6776 28.7819 12.912 29.2691 12.2159C29.7215 11.5199 30.3132 10.9282 31.0093 10.441C32.5058 9.43168 34.1067 9.01405 35.8816 9.22287C36.7517 9.32728 37.5522 9.6057 38.2482 10.0233C38.9443 10.4062 39.5359 10.9282 39.9884 11.5547C40.4756 12.1811 40.7888 12.8772 40.9628 13.6428C41.1369 14.4433 41.1369 15.2438 40.9976 16.0442C40.8236 16.8795 40.5104 17.6451 40.0232 18.3412C39.5359 19.0373 38.9443 19.5941 38.2482 20.1161C36.7865 21.1254 35.1856 21.5431 33.4106 21.2994Z" fill="white"/>
<path d="M41.2065 21.6118L41.5894 10.6141L48.3411 14.8948L48.2019 10.0572L52.8307 9.98764L52.7263 21.9598L45.6265 18.3403V21.7858L41.2065 21.6118Z" fill="white"/>
<path d="M21.5429 12.355C21.5081 12.355 21.5081 12.355 21.4733 12.355C21.5429 12.4942 21.5777 12.6682 21.5777 12.8422C21.5777 13.5731 20.9861 14.1647 20.2552 14.1647C19.8724 14.1647 19.5591 14.0255 19.3155 13.7471C19.1415 14.0603 19.0719 14.4431 19.0719 14.826C19.0719 16.1833 20.1856 17.297 21.5429 17.297C22.9002 17.297 24.0139 16.1833 24.0139 14.826C24.0139 13.4687 22.9002 12.355 21.5429 12.355Z" fill="url(#paint1_linear)"/>
<path d="M34.6636 12.8077C34.6288 12.8077 34.6288 12.8077 34.594 12.8077C34.6636 12.947 34.6984 13.121 34.6984 13.295C34.6984 14.0258 34.1068 14.6175 33.3759 14.6175C32.9931 14.6175 32.6799 14.4783 32.4362 14.1999C32.2622 14.5131 32.1926 14.8959 32.1926 15.2787C32.1926 16.636 33.3063 17.7497 34.6636 17.7497C36.0209 17.7497 37.1346 16.636 37.1346 15.2787C37.1346 13.9214 36.0209 12.8077 34.6636 12.8077Z" fill="url(#paint2_linear)"/>
<path d="M59.8956 17.9937L60.0696 11.9728C60.1044 11.1375 60.9049 10.5807 61.7054 10.8243C62.4014 11.0679 62.7495 11.8684 62.4362 12.5296L59.8956 17.9937Z" fill="url(#paint3_linear)"/>
<path d="M60.696 18.7935L63.8979 16.1485C64.3503 15.8004 65.0116 15.9396 65.2204 16.4617C65.4292 16.9141 65.1508 17.471 64.6636 17.6102L60.696 18.7935Z" fill="url(#paint4_linear)"/>
<defs>
<linearGradient id="paint0_linear" x1="0" y1="15.0017" x2="57.8353" y2="15.0017" gradientUnits="userSpaceOnUse">
<stop stop-color="#4BC8EE"/>
<stop offset="1" stop-color="#00ADE9"/>
</linearGradient>
<linearGradient id="paint1_linear" x1="19.0469" y1="14.8446" x2="24.0109" y2="14.8446" gradientUnits="userSpaceOnUse">
<stop stop-color="#4BC8EE"/>
<stop offset="1" stop-color="#00ADE9"/>
</linearGradient>
<linearGradient id="paint2_linear" x1="32.1715" y1="15.28" x2="37.1355" y2="15.28" gradientUnits="userSpaceOnUse">
<stop stop-color="#4BC8EE"/>
<stop offset="1" stop-color="#00ADE9"/>
</linearGradient>
<linearGradient id="paint3_linear" x1="59.8799" y1="14.3649" x2="62.5418" y2="14.3649" gradientUnits="userSpaceOnUse">
<stop stop-color="#4BC8EE"/>
<stop offset="1" stop-color="#00ADE9"/>
</linearGradient>
<linearGradient id="paint4_linear" x1="60.6892" y1="17.398" x2="65.265" y2="17.398" gradientUnits="userSpaceOnUse">
<stop stop-color="#4BC8EE"/>
<stop offset="1" stop-color="#00ADE9"/>
</linearGradient>
</defs>
</svg>
